<svg width="30" height="30" viewBox="0 0 30 30" fill="none" xmlns="http://www.w3.org/2000/svg">
<path fill-rule="evenodd" clip-rule="evenodd" d="M18.44 2.3925C17.7396 3.3564 17.3149 4.49279 17.2114 5.67975C17.1078 6.86672 17.3294 8.05947 17.8523 9.13007C18.3752 10.2007 19.1797 11.1087 20.1795 11.7568C21.1793 12.4049 22.3367 12.7685 23.5275 12.8087V12.8225C23.5462 13.07 23.565 13.3237 23.59 13.5687C23.8862 16.3775 24.5612 18.3062 25.21 19.5725C25.6412 20.4162 26.065 20.9762 26.365 21.315C26.4967 21.4644 26.6387 21.6043 26.79 21.7337L26.8025 21.7412C26.9629 21.8577 27.0823 22.0219 27.1435 22.2104C27.2047 22.3989 27.2046 22.6019 27.1433 22.7903C27.0819 22.9788 26.9624 23.1429 26.8019 23.2592C26.6414 23.3755 26.4482 23.4379 26.25 23.4375H3.74999C3.55224 23.4373 3.35963 23.3745 3.19971 23.2582C3.03978 23.1419 2.92072 22.978 2.85956 22.7899C2.7984 22.6019 2.79827 22.3993 2.85919 22.2112C2.92011 22.0231 3.03896 21.859 3.19874 21.7425L3.20874 21.7337L3.28874 21.6662C3.36374 21.5987 3.48499 21.485 3.63499 21.315C3.93499 20.9775 4.35874 20.4175 4.78999 19.5737C5.65249 17.8875 6.56249 15.0375 6.56249 10.5C6.56249 8.14875 7.43749 5.8825 9.01249 4.2025C10.59 2.52 12.7425 1.5625 15 1.5625C15.4783 1.5625 15.9504 1.60458 16.4162 1.68875C16.7137 1.7425 17.6887 2.04625 18.44 2.3925Z" fill="white"/>
<path fill-rule="evenodd" clip-rule="evenodd" d="M19.0625 6.25C19.0625 5.0068 19.5563 3.81451 20.4354 2.93544C21.3145 2.05636 22.5068 1.5625 23.75 1.5625C24.9932 1.5625 26.1855 2.05636 27.0645 2.93544C27.9436 3.81451 28.4375 5.0068 28.4375 6.25C28.4375 7.4932 27.9436 8.68549 27.0645 9.56456C26.1855 10.4436 24.9932 10.9375 23.75 10.9375C22.5068 10.9375 21.3145 10.4436 20.4354 9.56456C19.5563 8.68549 19.0625 7.4932 19.0625 6.25ZM12.3675 25.4387C12.474 25.377 12.5917 25.3369 12.7137 25.3206C12.8358 25.3044 12.9598 25.3123 13.0788 25.344C13.1978 25.3757 13.3093 25.4305 13.4071 25.5053C13.5049 25.5801 13.587 25.6735 13.6487 25.78C13.7861 26.0166 13.9833 26.213 14.2204 26.3496C14.4575 26.4861 14.7264 26.5579 15 26.5579C15.2736 26.5579 15.5424 26.4861 15.7796 26.3496C16.0167 26.213 16.2138 26.0166 16.3512 25.78C16.413 25.6735 16.4952 25.5801 16.5931 25.5054C16.691 25.4306 16.8026 25.3758 16.9216 25.3442C17.0407 25.3126 17.1648 25.3047 17.2868 25.321C17.4089 25.3374 17.5266 25.3776 17.6331 25.4394C17.7396 25.5012 17.833 25.5834 17.9077 25.6812C17.9825 25.7791 18.0373 25.8907 18.0689 26.0098C18.1005 26.1288 18.1084 26.2529 18.0921 26.375C18.0758 26.497 18.0355 26.6147 17.9737 26.7212C17.6716 27.2423 17.2379 27.6748 16.716 27.9755C16.194 28.2762 15.6023 28.4344 15 28.4344C14.3977 28.4344 13.8059 28.2762 13.284 27.9755C12.7621 27.6748 12.3284 27.2423 12.0262 26.7212C11.9643 26.6147 11.924 26.4969 11.9076 26.3747C11.8913 26.2526 11.8992 26.1283 11.9309 26.0092C11.9626 25.8901 12.0175 25.7784 12.0924 25.6805C12.1673 25.5826 12.2608 25.5005 12.3675 25.4387Z" fill="#16A34A"/>
</svg>
