<svg width="55" height="55" viewBox="0 0 55 55" fill="none" xmlns="http://www.w3.org/2000/svg">
<rect width="55" height="55" rx="10" fill="#16A34A"/>
<path fill-rule="evenodd" clip-rule="evenodd" d="M27.5 4.58337C30.5095 4.58336 33.4895 5.17611 36.2699 6.32777C39.0502 7.47943 41.5766 9.16745 43.7046 11.2955C45.8326 13.4235 47.5206 15.9498 48.6723 18.7302C49.824 21.5105 50.4167 24.4905 50.4167 27.5C50.4167 40.1566 40.1566 50.4167 27.5 50.4167C14.8436 50.4167 4.58337 40.1566 4.58337 27.5C4.58337 14.8436 14.8436 4.58337 27.5 4.58337ZM29.7917 29.7917H25.2084C19.5349 29.7917 14.6641 33.2278 12.5632 38.1328C15.8873 42.794 21.3387 45.8334 27.5 45.8334C33.6613 45.8334 39.1127 42.794 42.4369 38.1325C40.3361 33.2278 35.4652 29.7917 29.7917 29.7917ZM27.5 11.4584C23.7031 11.4584 20.625 14.5364 20.625 18.3334C20.625 22.1303 23.7031 25.2084 27.5 25.2084C31.2969 25.2084 34.375 22.1303 34.375 18.3334C34.375 14.5364 31.297 11.4584 27.5 11.4584Z" fill="black"/>
</svg>
